<svg width="1440" height="4251" viewBox="0 0 1440 4251" fill="none" xmlns="http://www.w3.org/2000/svg">
<path d="M857 1569.5C857 2057.72 1104.5 1982 -70 2453.5C-581.968 2453.5 -997 2057.72 -997 1569.5C-997 1081.28 -581.968 685.5 -70 685.5C-164.5 1615 857 1081.28 857 1569.5Z" fill="url(#paint0_radial_38_726)" fill-opacity="0.35"/>
<path d="M638.5 5.50002C285.197 69.0496 544.247 735.069 237.51 805.499C-69.2267 875.929 -387.016 631.946 -472.293 260.549C-557.569 -110.849 -378.04 -469.021 -71.3031 -539.45C235.434 -609.88 553.224 -365.898 638.5 5.50002Z" fill="url(#paint1_radial_38_726)" fill-opacity="0.35"/>
<path d="M2298.5 927.5C2298.5 1339.5 1959.8 1673.5 1542 1673.5C1124.2 1673.5 548 1257.5 785.5 927.5C1396 1075 1124.2 181.5 1542 181.5C1959.8 181.5 2298.5 515.496 2298.5 927.5Z" fill="url(#paint2_radial_38_726)" fill-opacity="0.35"/>
<path d="M1936.2 2808.47C1582.9 2872.02 1841.95 3538.04 1535.21 3608.47C1228.47 3678.9 910.683 3434.92 825.407 3063.52C740.13 2692.13 919.659 2333.95 1226.4 2263.52C1533.13 2193.09 1850.92 2437.08 1936.2 2808.47Z" fill="url(#paint3_radial_38_726)" fill-opacity="0.35"/>
<path d="M23.6 4330.72C-382.066 4402.71 -770.106 4127.59 -843.113 3716.21C-916.119 3304.84 -607.204 2664.81 -240.78 2841C-279.333 3467.88 552.926 3044.13 625.932 3455.5C698.939 3866.88 429.266 4258.72 23.6 4330.72Z" fill="url(#paint4_radial_38_726)" fill-opacity="0.35"/>
<g filter="url(#filter0_d_38_726)">
<path d="M1695.52 3400.64C1646.8 3305.3 1543.81 3315.37 1498.41 3332.33C1524.12 3321.49 1550.64 3282.32 1451.01 3212.34C1326.47 3124.87 1167.33 3425.4 1296.16 3500.91C1424.99 3576.41 1298.85 3651.97 1483.76 3861.38C1668.67 4070.79 1826.59 3898.7 1861.72 3819.98C1896.85 3741.26 1830.67 3619.95 1776.89 3593.06C1723.11 3566.17 1756.43 3519.82 1695.52 3400.64Z" fill="url(#paint5_linear_38_726)"/>
<path d="M1695.52 3400.64C1646.8 3305.3 1543.81 3315.37 1498.41 3332.33C1524.12 3321.49 1550.64 3282.32 1451.01 3212.34C1326.47 3124.87 1167.33 3425.4 1296.16 3500.91C1424.99 3576.41 1298.85 3651.97 1483.76 3861.38C1668.67 4070.79 1826.59 3898.7 1861.72 3819.98C1896.85 3741.26 1830.67 3619.95 1776.89 3593.06C1723.11 3566.17 1756.43 3519.82 1695.52 3400.64Z" fill="url(#paint6_radial_38_726)" fill-opacity="0.74"/>
<path d="M1695.52 3400.64C1646.8 3305.3 1543.81 3315.37 1498.41 3332.33C1524.12 3321.49 1550.64 3282.32 1451.01 3212.34C1326.47 3124.87 1167.33 3425.4 1296.16 3500.91C1424.99 3576.41 1298.85 3651.97 1483.76 3861.38C1668.67 4070.79 1826.59 3898.7 1861.72 3819.98C1896.85 3741.26 1830.67 3619.95 1776.89 3593.06C1723.11 3566.17 1756.43 3519.82 1695.52 3400.64Z" fill="url(#paint7_radial_38_726)"/>
</g>
<g filter="url(#filter1_d_38_726)">
<path d="M-341.799 3876.67C-419.115 3950.74 -379.866 4046.49 -350.577 4085.1C-368.347 4063.59 -413.484 4049.45 -451.878 4164.99C-499.871 4309.41 -166.28 4375.47 -130.986 4230.37C-95.6909 4085.28 12.9346 4184.38 160.368 3947.09C307.801 3709.8 97.5853 3608 12.0893 3596.97C-73.4066 3585.94 -170.58 3684.2 -180.879 3743.44C-191.178 3802.68 -245.153 3784.08 -341.799 3876.67Z" fill="url(#paint8_linear_38_726)"/>
<path d="M-341.799 3876.67C-419.115 3950.74 -379.866 4046.49 -350.577 4085.1C-368.347 4063.59 -413.484 4049.45 -451.878 4164.99C-499.871 4309.41 -166.28 4375.47 -130.986 4230.37C-95.6909 4085.28 12.9346 4184.38 160.368 3947.09C307.801 3709.8 97.5853 3608 12.0893 3596.97C-73.4066 3585.94 -170.58 3684.2 -180.879 3743.44C-191.178 3802.68 -245.153 3784.08 -341.799 3876.67Z" fill="url(#paint9_radial_38_726)" fill-opacity="0.74"/>
<path d="M-341.799 3876.67C-419.115 3950.74 -379.866 4046.49 -350.577 4085.1C-368.347 4063.59 -413.484 4049.45 -451.878 4164.99C-499.871 4309.41 -166.28 4375.47 -130.986 4230.37C-95.6909 4085.28 12.9346 4184.38 160.368 3947.09C307.801 3709.8 97.5853 3608 12.0893 3596.97C-73.4066 3585.94 -170.58 3684.2 -180.879 3743.44C-191.178 3802.68 -245.153 3784.08 -341.799 3876.67Z" fill="url(#paint10_radial_38_726)"/>
</g>
<defs>
<filter id="filter0_d_38_726" x="1213.4" y="3165.53" width="693.159" height="834.891" filterUnits="userSpaceOnUse" color-interpolation-filters="sRGB">
<feFlood flood-opacity="0" result="BackgroundImageFix"/>
<feColorMatrix in="SourceAlpha" type="matrix" values="0 0 0 0 0 0 0 0 0 0 0 0 0 0 0 0 0 0 127 0" result="hardAlpha"/>
<feOffset dy="4"/>
<feGaussianBlur stdDeviation="17.5"/>
<feComposite in2="hardAlpha" operator="out"/>
<feColorMatrix type="matrix" values="0 0 0 0 0 0 0 0 0 0 0 0 0 0 0 0 0 0 0.25 0"/>
<feBlend mode="normal" in2="BackgroundImageFix" result="effect1_dropShadow_38_726"/>
<feBlend mode="normal" in="SourceGraphic" in2="effect1_dropShadow_38_726" result="shape"/>
</filter>
<filter id="filter1_d_38_726" x="-491.59" y="3565.11" width="738.016" height="785.547" filterUnits="userSpaceOnUse" color-interpolation-filters="sRGB">
<feFlood flood-opacity="0" result="BackgroundImageFix"/>
<feColorMatrix in="SourceAlpha" type="matrix" values="0 0 0 0 0 0 0 0 0 0 0 0 0 0 0 0 0 0 127 0" result="hardAlpha"/>
<feOffset dy="4"/>
<feGaussianBlur stdDeviation="17.5"/>
<feComposite in2="hardAlpha" operator="out"/>
<feColorMatrix type="matrix" values="0 0 0 0 0 0 0 0 0 0 0 0 0 0 0 0 0 0 0.25 0"/>
<feBlend mode="normal" in2="BackgroundImageFix" result="effect1_dropShadow_38_726"/>
<feBlend mode="normal" in="SourceGraphic" in2="effect1_dropShadow_38_726" result="shape"/>
</filter>
<radialGradient id="paint0_radial_38_726" cx="0" cy="0" r="1" gradientUnits="userSpaceOnUse" gradientTransform="translate(-35.0001 1871) rotate(90) scale(884 927)">
<stop stop-color="#52FFFF"/>
<stop offset="1" stop-color="#00E0FF" stop-opacity="0"/>
</radialGradient>
<radialGradient id="paint1_radial_38_726" cx="0" cy="0" r="1" gradientUnits="userSpaceOnUse" gradientTransform="translate(118.803 -54.0008) rotate(77.0685) scale(689.974 569.849)">
<stop stop-color="#DB00FF"/>
<stop offset="1" stop-color="#ED42FF" stop-opacity="0"/>
</radialGradient>
<radialGradient id="paint2_radial_38_726" cx="0" cy="0" r="1" gradientUnits="userSpaceOnUse" gradientTransform="translate(1640.5 792) rotate(90) scale(746 756.5)">
<stop stop-color="#0500FF"/>
<stop offset="1" stop-color="#001AFF" stop-opacity="0"/>
</radialGradient>
<radialGradient id="paint3_radial_38_726" cx="0" cy="0" r="1" gradientUnits="userSpaceOnUse" gradientTransform="translate(1416.5 2748.97) rotate(77.0685) scale(689.974 569.849)">
<stop stop-color="#DB00FF"/>
<stop offset="1" stop-color="#ED42FF" stop-opacity="0"/>
</radialGradient>
<radialGradient id="paint4_radial_38_726" cx="0" cy="0" r="1" gradientUnits="userSpaceOnUse" gradientTransform="translate(42.0368 3659.16) rotate(169.937) scale(746 756.5)">
<stop stop-color="#0500FF"/>
<stop offset="1" stop-color="#001AFF" stop-opacity="0"/>
</radialGradient>
<linearGradient id="paint5_linear_38_726" x1="1127.62" y1="3536.27" x2="1819.48" y2="3493.15" gradientUnits="userSpaceOnUse">
<stop stop-color="#001AFF"/>
<stop offset="1" stop-color="#EB00FF"/>
</linearGradient>
<radialGradient id="paint6_radial_38_726" cx="0" cy="0" r="1" gradientTransform="matrix(330.847 24.7187 -105.156 568.549 1156.07 3648.65)" gradientUnits="userSpaceOnUse">
<stop stop-color="white"/>
<stop offset="0.0001" stop-color="white"/>
<stop offset="1" stop-color="white" stop-opacity="0"/>
</radialGradient>
<radialGradient id="paint7_radial_38_726" cx="0" cy="0" r="1" gradientTransform="matrix(-336.246 124.096 -99.1025 -545.789 1644.4 3754.94)" gradientUnits="userSpaceOnUse">
<stop stop-color="#00C2FF"/>
<stop offset="1" stop-color="#00C2FF" stop-opacity="0"/>
</radialGradient>
<linearGradient id="paint8_linear_38_726" x1="-48.682" y1="4381.64" x2="-288.811" y2="3731.36" gradientUnits="userSpaceOnUse">
<stop stop-color="#001AFF"/>
<stop offset="1" stop-color="#EB00FF"/>
</linearGradient>
<radialGradient id="paint9_radial_38_726" cx="0" cy="0" r="1" gradientTransform="matrix(-71.4076 -323.993 574.784 -62.678 50.7822 4322.09)" gradientUnits="userSpaceOnUse">
<stop stop-color="white"/>
<stop offset="0.0001" stop-color="white"/>
<stop offset="1" stop-color="white" stop-opacity="0"/>
</radialGradient>
<radialGradient id="paint10_radial_38_726" cx="0" cy="0" r="1" gradientTransform="matrix(215.496 286.396 -494.282 251.778 12.2475 3823.82)" gradientUnits="userSpaceOnUse">
<stop stop-color="#00C2FF"/>
<stop offset="1" stop-color="#00C2FF" stop-opacity="0"/>
</radialGradient>
</defs>
</svg>
